<svg width="175" height="78" viewBox="0 0 175 78" fill="none" xmlns="http://www.w3.org/2000/svg">
<path fill-rule="evenodd" clip-rule="evenodd" d="M0 24.3827V36.5774H35.6938C39.8426 36.5774 45.1432 32.7436 45.1432 26.4013C45.1432 23.8506 46.1193 22.1867 43.1194 18.8127L38.5538 13.4065C35.9378 10.9675 38.8664 10.9675 41.0638 10.9675H56.134V36.5774H68.0856V10.9675H84.1938V0H32.033C25.6868 0 22.5836 6.08965 22.7582 9.26028C22.9338 12.4309 23.5174 16.42 28.7909 21.2121C33.6015 25.5819 26.4093 24.3827 25.6868 24.3827H0ZM110.621 0H91.3406L80.5321 36.5784H92.5609L94.5123 31.4566H107.203L109.087 36.5784H120.87L110.621 0ZM97.1978 22.6754L101.347 9.26028L105.252 22.6754H97.1978ZM158.944 24.3827C154.307 24.3827 154.307 22.6754 154.307 22.6754C158.28 22.6754 161.803 16.8904 161.803 10.9675C161.803 5.04467 156.015 0 151.377 0H125.437V36.5784H138.618V24.3837C138.618 24.3837 144.23 30.9688 147.158 33.6517C150.088 36.3345 150.331 36.5784 154.306 36.5784H174.996V24.3837C174.998 24.3827 163.581 24.3827 158.944 24.3827ZM146.985 15.8464H138.619V9.26028H146.985C150.82 9.26028 151.484 15.8464 146.985 15.8464ZM0 41.2114H13.4844L16.9011 53.4081L20.0737 41.2114H34.2295L37.8902 53.4081L41.5519 41.2114H53.2662L42.5271 77.7985H31.789L27.0836 60.4801L21.782 77.7985H10.7999L0 41.2114ZM80.9401 41.4226H61.6593L50.8518 78H62.8796L64.832 72.8792H77.5234L79.4073 78H91.1911L80.9401 41.4226ZM67.5175 64.097L71.6663 50.6819L75.5711 64.097H67.5175ZM159.187 52.1886C156.993 52.1886 154.599 52.445 157.216 54.883L161.783 60.2902C164.782 63.6642 164.734 65.0707 164.734 67.6234C164.734 73.9646 158.456 77.7985 154.307 77.7985L125.469 77.9923C121.496 77.9923 121.252 77.7494 118.323 75.0665C115.395 72.3837 109.781 65.7976 109.781 65.7976V77.9923H96.6026V41.4148H122.542C127.179 41.4148 132.969 46.4605 132.969 52.3824C132.969 58.3062 129.446 64.0903 125.471 64.0903C125.471 64.0903 127.219 65.8467 130.147 65.8467C133.077 65.8467 144.353 65.8583 144.353 65.8583C145.075 65.8583 152.266 67.0575 147.456 62.6877C142.183 57.8956 141.599 53.9084 141.424 50.7378C141.248 47.5672 143.991 41.2124 150.335 41.2124H175V52.1896H159.187V52.1886ZM118.147 57.2603H109.78V50.6742H118.147C121.984 50.6742 122.646 57.2603 118.147 57.2603Z" fill="white"/>
</svg>
