<svg width="175" height="53" viewBox="0 0 175 53" fill="none" xmlns="http://www.w3.org/2000/svg">
<path d="M62.3612 20.8628C62.3612 15.5821 66.1505 11.8948 73.0367 11.8948C77.2385 11.8948 80.6767 13.2579 82.5394 14.5932C82.806 14.7839 83.2816 15.2464 82.9964 16.1067C82.631 17.0333 81.9607 18.4266 81.4799 19.3318C81.2 19.8592 80.4852 19.7897 80.119 19.6012C78.7922 18.9181 76.6159 17.7624 74.6168 17.5493C74.1105 17.4933 73.6012 17.4709 73.0921 17.4823C71.3315 17.5222 69.8605 18.1433 69.3425 19.5082C69.241 19.7665 69.1844 20.0407 69.1752 20.3186C69.1268 22.1172 71.5903 22.7675 74.5747 23.2885C80.1229 24.2543 84.3205 25.9071 84.3205 31.7094C84.3205 36.6369 80.4663 41.09 72.9147 40.9535C67.9364 40.8513 64.4045 39.1421 62.512 37.4836C62.4475 37.4273 61.727 36.6818 62.1132 35.7852C62.5551 34.6309 63.3011 33.3081 63.8865 32.6057C64.212 32.1545 65.0709 32.0829 65.5174 32.3641C67.0775 33.3491 69.6448 34.9285 72.6043 35.0332C72.8379 35.0414 73.0693 35.0429 73.2966 35.0368C75.9587 34.9712 77.5692 33.9456 77.5356 32.218C77.5068 30.6959 75.3961 29.8068 72.035 29.1632C66.6745 28.1372 62.3619 26.3419 62.3619 20.8628H62.3612ZM111.061 28.3817C107.281 28.4319 103.815 29.4818 103.715 32.4835C103.714 34.8654 105.616 36.0353 108.285 35.8821C110.845 35.6316 112.798 34.5033 113.658 33.0062C113.976 32.4514 114.025 30.3752 114.005 29.4879C114 29.299 113.633 28.9415 113.472 28.8728C112.669 28.5289 112.074 28.4227 111.061 28.381L111.061 28.3817ZM98.483 16.2867C100.251 14.6795 103.756 12.1778 109.341 12.3096C116.713 12.4654 120.607 15.9766 120.969 24.3762C121.119 27.84 120.871 37.5018 120.812 39.909C120.804 40.2543 120.688 40.4931 120.23 40.502C119.017 40.5516 116.212 40.532 114.924 40.5148C114.273 40.4828 114.198 40.1549 114.189 39.8117C114.184 39.5872 114.165 38.9215 114.151 38.3788C114.144 38.0909 113.878 38.0991 113.81 38.1728C112.08 40.0487 109.249 40.9546 106.237 40.9546C101.66 40.9546 97.0972 38.2188 97.1113 32.801C97.1253 27.2524 100.997 24.5155 105.251 23.8701C107.975 23.4582 111.045 23.8245 113.37 24.7632C113.519 24.8237 113.823 24.7361 113.825 24.5219C113.834 23.8149 113.801 22.4675 113.667 21.8289C113.326 20.2017 111.99 18.8924 109.183 18.5396C108.605 18.4673 108.024 18.4434 107.441 18.4904C105.21 18.6686 102.525 20.4362 101.413 21.098C101.152 21.2533 100.742 21.1397 100.609 20.9661C99.9606 20.1144 98.3297 17.6234 98.2013 17.2253C98.073 16.8283 98.254 16.4941 98.4823 16.2852L98.483 16.2867ZM123.4 26.6156C123.356 18.8771 128.663 12.3488 137.279 12.2915C142.656 12.2558 146.562 14.7326 147.251 15.9007C147.391 16.1751 147.319 16.4043 147.222 16.6805C146.767 17.6569 145.617 19.5435 144.798 20.6126C144.449 21.068 144.07 20.6778 143.63 20.3802C142.409 19.5535 140.087 18.5425 137.803 18.5425C133.659 18.5432 130.573 21.4304 130.607 26.7424C130.639 31.8399 133.595 34.6412 137.817 34.7428C140.025 34.7991 142.163 33.5101 143.313 32.4542C143.675 32.1339 144.049 32.2942 144.461 32.6221C145.272 33.4635 146.434 34.7624 147.078 35.6565C147.5 36.1533 147.184 36.6394 147.032 36.8347C145.284 39.0823 141.908 40.9738 137.44 40.9995C128.085 41.0661 123.444 34.3825 123.401 26.6166L123.4 26.6156ZM168.058 40.6506C168.497 40.6171 173.183 39.96 174.621 39.6254C174.978 39.5427 175.105 39.2376 174.906 38.9354C174.102 37.7117 171.991 34.2364 169.779 31.1254C167.745 28.2648 165.601 25.7489 164.907 24.781C164.738 24.5458 164.747 24.3141 164.931 24.1317C166.251 22.8203 171.768 17.3233 173.843 15.0533C174.646 14.1702 174.164 13.7903 173.482 13.584C172.164 13.1849 170.033 12.6874 168.82 12.4276C168.309 12.3178 167.694 12.3563 167.247 12.8232C165.173 14.7885 158.842 21.2441 156.953 23.1738C156.612 23.5219 156.414 23.4446 156.413 22.9471C156.397 19.2267 156.325 3.29789 156.194 0.677894C156.185 0.331508 155.775 0.06851 155.544 0.0560372C154.356 -0.00703935 151.354 -0.0252142 150.171 0.045346C149.839 0.0834771 149.522 0.426657 149.494 0.716738C149.221 4.90616 149.609 35.6597 149.771 39.9618C149.783 40.2729 150.011 40.5141 150.302 40.5316C151.482 40.6011 154.401 40.5965 155.764 40.5704C156.435 40.5704 156.517 40.0915 156.517 40.0915L156.618 31.8391C156.618 31.8391 156.687 31.4721 156.799 31.3509C157.279 30.8253 158.608 29.3777 159.175 28.8182C159.311 28.6839 159.526 28.6935 159.665 28.8835C160.338 29.8064 162.259 32.807 164.039 35.4869C165.674 37.9487 167.201 40.1335 167.307 40.2878C167.554 40.6442 167.841 40.6585 168.058 40.6517V40.6506H168.058ZM88.3598 40.6221C88.7719 40.636 91.8987 40.6324 93.2841 40.6307C93.7506 40.6399 93.9929 40.2811 94.0084 39.9643C94.3026 33.9324 94.1767 5.21442 93.9908 0.679676C93.9754 0.287674 93.8102 0.140496 93.5468 0.10486C92.3578 -0.0569301 88.9789 -0.0191557 87.8958 0.268787C87.684 0.324736 87.5591 0.488308 87.5524 0.698563C87.2873 12.3873 87.4662 39.3356 87.5223 39.846C87.578 40.357 87.8411 40.6043 88.3605 40.6221H88.3598Z" fill="white"/>
<path d="M4.44954 27.9999C2.49902 28.0146 0.846728 26.8684 0.237502 25.0795C0.214901 25.012 0.193831 24.9439 0.174307 24.8754C-0.489593 22.5845 0.797734 20.1879 3.10505 19.4205L40.113 7.19479C40.5525 7.06944 41.0072 7.00395 41.4646 7.00015C43.467 6.98475 45.1647 8.1561 45.7888 9.98281L45.8442 10.1592C46.5365 12.5454 44.8164 14.6752 42.7555 15.3579C42.7541 15.3589 42.3792 15.4839 5.95272 27.7475C5.46855 27.9102 4.96105 27.9954 4.44954 27.9999Z" fill="white"/>
<path d="M10.4561 46.9993C8.49566 47.0138 6.84222 45.8396 6.24174 44.0072C6.21895 43.9375 6.1977 43.8673 6.17801 43.7966C5.50672 41.3877 6.78911 38.8711 9.09791 38.0727L46.0062 25.2522C46.4831 25.0885 46.9756 25.0049 47.4709 25.0001C49.4366 24.9849 51.1637 26.2188 51.7731 28.0718L51.8297 28.2646C52.1862 29.5455 51.9756 30.9849 51.2668 32.121C50.7385 32.9657 49.0723 33.7092 49.0723 33.7092L12.0238 46.7246C11.5186 46.9004 10.9895 46.9933 10.4561 47V46.9993Z" fill="white"/>
<path d="M41.3845 46.9998C40.4001 47.009 39.4379 46.713 38.6359 46.1542C37.8339 45.5953 37.2331 44.8023 36.9197 43.8887L24.2447 7.03158L24.1813 6.82472C23.4946 4.47434 24.8153 2.02267 27.1823 1.24159C27.6559 1.08573 28.1456 1.00441 28.6385 1.00013C29.3708 0.994779 30.0794 1.15634 30.7469 1.47912C31.2967 1.74529 31.7873 2.11524 32.1905 2.5677C32.5937 3.02015 32.9016 3.54619 33.0964 4.11554L45.7703 40.9694L45.8071 41.0878C46.519 43.5281 45.2012 45.9812 42.8342 46.7623C42.3666 46.9152 41.8774 46.9953 41.3845 46.9998Z" fill="white"/>
<path d="M22.5833 52.9998C21.6437 53.009 20.7254 52.7127 19.96 52.1533C19.1945 51.5939 18.6213 50.8002 18.3224 49.8859L6.23423 13.0275C6.04693 12.4589 5.97075 11.8579 6.01005 11.259C6.04936 10.6601 6.20337 10.0751 6.46328 9.53734C6.72319 8.99962 7.08389 8.51979 7.52473 8.12532C7.96557 7.73085 8.47789 7.42949 9.03236 7.23849C9.47905 7.08524 9.94639 7.00484 10.4173 7.00022C11.3566 6.99071 12.2746 7.28663 13.0399 7.84556C13.8052 8.4045 14.3783 9.19774 14.6773 10.1116L26.7658 46.9715C26.9532 47.5404 27.0293 48.1416 26.9899 48.7408C26.9505 49.34 26.7962 49.9252 26.536 50.4631C26.2758 51.001 25.9147 51.4809 25.4734 51.8753C25.0321 52.2697 24.5194 52.5709 23.9645 52.7615C23.5187 52.9149 23.0521 52.9951 22.582 52.9994H22.5833V52.9998Z" fill="white"/>
<path d="M35.4702 38L43 35.135L40.5385 27L33 29.835L35.4702 38Z" fill="white"/>
<path d="M16.9801 44L26 41.4103L23.0288 34L14 36.5638L16.9801 44Z" fill="white"/>
<path d="M28.6975 20L37 17.3753L34.3179 10L26 12.5803L28.6975 20Z" fill="white"/>
<path d="M10.7222 27L19 24.1398L16.2932 16L8 18.8116L10.7222 27Z" fill="white"/>
</svg>
