<svg width="142" height="55" viewBox="0 0 142 55" fill="none" xmlns="http://www.w3.org/2000/svg">
<path d="M130.478 13.6933C130.416 13.4921 130.292 13.3164 130.125 13.1918C129.958 13.0671 129.756 12.9999 129.548 13H120.452C120.244 13 120.042 13.0672 119.875 13.1919C119.708 13.3166 119.585 13.4922 119.522 13.6933L108.045 50.7103C107.999 50.8588 107.988 51.0163 108.013 51.17C108.038 51.3237 108.098 51.4693 108.188 51.5949C108.279 51.7206 108.397 51.8227 108.534 51.8931C108.671 51.9635 108.822 52.0001 108.975 52H115.238C115.448 52.0001 115.653 51.9309 115.821 51.8028C115.99 51.6747 116.113 51.4946 116.173 51.2893L124.076 24.0646C124.076 24.0646 124.283 23.3846 124.999 23.3846C125.726 23.3846 125.903 24.0911 125.903 24.092L129.57 37.0024H124.532C124.32 37.0023 124.113 37.0729 123.944 37.2033C123.775 37.3338 123.652 37.5169 123.594 37.7249L122.18 42.8358C122.14 42.9831 122.133 43.138 122.161 43.2884C122.189 43.4388 122.251 43.5805 122.342 43.7024C122.433 43.8245 122.55 43.9235 122.685 43.9917C122.82 44.0599 122.968 44.0954 123.119 44.0953H131.62L133.829 51.3032C133.891 51.5051 134.014 51.6816 134.182 51.807C134.349 51.9323 134.552 52 134.76 52H141.025C141.178 52 141.329 51.9633 141.466 51.8929C141.603 51.8224 141.721 51.7203 141.811 51.5947C141.902 51.4691 141.962 51.3236 141.987 51.1699C142.012 51.0163 142.001 50.8588 141.955 50.7103L130.478 13.693" fill="white"/>
<path d="M86.9044 20.2791H94.7167C98.757 20.2791 99.5681 21.8634 99.5681 24.4202V28.2386C99.5681 31.4209 98.3442 32.4946 94.7167 32.4946H86.9044V20.2791ZM110.758 50.7362L102.174 38.3948C105.87 36.8668 107.743 33.6641 107.743 28.8749V23.8419C107.743 16.3434 103.815 13 95.0065 13H79.7343C79.4679 13 79.2125 13.1054 79.0241 13.293C78.8357 13.4807 78.7298 13.7352 78.7297 14.0007V51.3871C78.7296 51.5186 78.7556 51.6488 78.806 51.7703C78.8565 51.8919 78.9305 52.0023 79.0238 52.0953C79.1171 52.1883 79.2278 52.2621 79.3497 52.3125C79.4716 52.3629 79.6023 52.3888 79.7343 52.3888H85.8998C86.1663 52.3888 86.4218 52.2832 86.6102 52.0954C86.7986 51.9076 86.9044 51.6529 86.9044 51.3873V39.6622H93.2143L101.796 51.959C101.889 52.0916 102.012 52.1999 102.155 52.2748C102.299 52.3496 102.459 52.3887 102.621 52.3888H109.995C110.187 52.3889 110.375 52.334 110.537 52.2307C110.699 52.1274 110.828 51.98 110.908 51.8061C110.988 51.6321 111.017 51.4388 110.99 51.2491C110.964 51.0594 110.883 50.8813 110.758 50.736V50.7362ZM71.2387 13H65.0729C64.8065 13 64.5511 13.1054 64.3627 13.293C64.1743 13.4807 64.0684 13.7352 64.0683 14.0007V51.3871C64.0682 51.5186 64.0942 51.6488 64.1447 51.7703C64.1951 51.8919 64.2691 52.0023 64.3624 52.0953C64.4557 52.1883 64.5665 52.2621 64.6884 52.3125C64.8103 52.3629 64.9409 52.3888 65.0729 52.3888H71.2387C71.5052 52.3888 71.7608 52.2833 71.9493 52.0955C72.1377 51.9077 72.2436 51.653 72.2436 51.3873V14.0009C72.2436 13.8694 72.2175 13.7393 72.167 13.6178C72.1165 13.4963 72.0425 13.386 71.9492 13.293C71.8559 13.2001 71.7451 13.1264 71.6232 13.0761C71.5013 13.0258 71.3706 13 71.2387 13ZM56.7994 13H50.5586C50.3047 13 50.0611 13.1003 49.8813 13.279C49.7015 13.4577 49.6001 13.7002 49.5993 13.9533V43.2082C49.5993 46.8847 46.7882 48.0933 44.8859 48.1897C44.6294 48.2023 44.331 48.3634 44.1671 48.6023C44.0859 48.7203 44.0326 48.8551 44.0109 48.9966C43.9893 49.1381 43.9999 49.2827 44.0421 49.4195L45.5593 54.3386C45.6832 54.7411 46.1187 55 46.8268 55C52.798 55 57.7559 50.3276 57.7559 44.0648V13.9538C57.756 13.8286 57.7313 13.7046 57.6833 13.5889C57.6352 13.4731 57.5648 13.368 57.4759 13.2794C57.3871 13.1908 57.2816 13.1206 57.1656 13.0726C57.0495 13.0247 56.9251 13 56.7994 13Z" fill="white"/>
<path d="M8.6153 3.11344C6.70034 3.11344 5.14987 4.63691 5.14987 6.52559C5.14987 8.40959 6.70034 9.93856 8.6153 9.93856C10.5314 9.93856 12.0804 8.40959 12.0804 6.52559C12.0804 4.63691 10.5317 3.11344 8.6153 3.11344ZM31.3817 3.11344C29.4659 3.11344 27.9174 4.63691 27.9174 6.52559C27.9174 8.40959 29.4659 9.93856 31.3817 9.93856C33.2922 9.93856 34.8463 8.40959 34.8463 6.52559C34.8463 4.63691 33.2922 3.11592 31.3817 3.11344ZM19.9984 0C18.0837 0 16.5332 1.5232 16.5332 3.41242C16.5332 5.29643 18.0834 6.82539 19.9984 6.82539C21.9145 6.82539 23.4632 5.29643 23.4632 3.41242C23.4632 1.5232 21.9142 0 19.9981 0H19.9984ZM39.574 12.6217C39.3843 12.4796 39.1526 12.4027 38.9142 12.4027C38.7838 12.4027 38.6517 12.426 38.5271 12.4733C36.1809 13.3562 33.7978 14.0264 31.6231 14.5249C31.1795 14.6266 30.8214 14.9508 30.6728 15.34C29.0883 19.61 25.0422 23.6762 20.7972 27.935C20.6268 28.0941 20.3883 28.304 19.9998 28.304C19.6121 28.304 19.3758 28.1007 19.2023 27.935C14.9579 23.6762 10.9118 19.624 9.32671 15.3537C9.17811 14.9649 8.81975 14.6409 8.37704 14.5387C6.20093 14.0402 3.81225 13.3491 1.46854 12.4667C1.34456 12.4201 1.213 12.3962 1.0803 12.3961C0.845398 12.3961 0.617759 12.4686 0.425593 12.6132C0.280143 12.7226 0.165231 12.8664 0.091578 13.0314C0.0179246 13.1963 -0.0120708 13.3769 0.00439016 13.5563C0.363865 17.1072 1.79003 20.5787 4.36389 24.2162C6.78329 27.6363 9.93896 30.8019 12.9899 33.8632C18.6113 39.5047 23.9219 44.8325 24.3878 51.0107C24.4081 51.2797 24.5311 51.5311 24.732 51.7145C24.9329 51.898 25.1968 52 25.4709 52H32.0755C32.2226 51.9999 32.3682 51.9704 32.5034 51.9133C32.6385 51.8562 32.7605 51.7727 32.8619 51.6679C32.9634 51.5631 33.0421 51.4391 33.0934 51.3035C33.1447 51.1678 33.1675 51.0234 33.1604 50.8788C32.9526 46.7481 31.3725 42.6113 28.33 38.2338C27.6923 37.316 27.0094 36.4229 26.2952 35.549C26.005 35.1932 26.1265 34.751 26.3483 34.5279C26.5678 34.307 26.7882 34.0866 27.0102 33.8632C30.0611 30.8019 33.2165 27.6363 35.6362 24.2162C38.2098 20.5781 39.6354 17.1272 39.9952 13.5769C40.0309 13.2202 39.8664 12.8415 39.574 12.6217ZM12.9125 38.6691C12.7561 38.5083 12.5268 38.3443 12.1413 38.3443C11.6483 38.3443 11.3559 38.6795 11.2453 38.8455C8.46726 43.0045 7.03244 46.93 6.83413 50.8747C6.82738 51.0197 6.85036 51.1646 6.90171 51.3007C6.95305 51.4368 7.03171 51.5614 7.13299 51.6669C7.23525 51.7719 7.35794 51.8554 7.49375 51.9126C7.62956 51.9699 7.7757 51.9996 7.92344 52H14.5166C14.7914 51.9988 15.0556 51.896 15.257 51.7121C15.4583 51.5281 15.582 51.2764 15.6034 51.0069C15.747 49.1056 16.3486 47.1999 17.4441 45.1971C17.8239 44.5044 17.5287 43.8534 17.3103 43.5753C16.2238 42.1848 14.8926 40.7017 12.9125 38.6691Z" fill="white"/>
<path d="M20.0068 15.1353C22.2098 15.1353 23.4876 15 23.9366 15C24.4806 15 25 15.4559 25 16.094C25 16.2802 24.9569 16.4134 24.9144 16.5311C24.6221 17.3301 23.2905 20.2052 20.8113 22.6715C20.5331 22.9483 20.2179 23 20.0009 23H19.9985C19.7818 23 19.4669 22.9483 19.189 22.6715C16.7095 20.2052 15.3776 17.3301 15.0862 16.5308C15.0431 16.4134 15 16.2802 15 16.094C15 15.4559 15.5203 15 16.0643 15C16.5133 15 17.7902 15.1353 19.9926 15.1353H20.0071" fill="white"/>
</svg>
