<svg width="217" height="49" viewBox="0 0 217 49" fill="none" xmlns="http://www.w3.org/2000/svg">
<path fill-rule="evenodd" clip-rule="evenodd" d="M207.865 4L217 4.05096C217 4.05096 200.017 27.3565 198.63 29.2559C198.18 29.8709 197.496 30.5342 197.148 31.3565C196.271 33.4234 195.371 37.9577 195.371 37.9577L187.012 38C187.012 38 188.313 33.2736 188.259 30.7562C188.212 28.5571 187.104 26.3606 186.482 24.155C185.853 21.9223 185 17.5534 185 17.5534H193.593L194.778 22.3546L207.865 4Z" fill="white"/>
<path fill-rule="evenodd" clip-rule="evenodd" d="M191.276 8.43151C192.964 9.43868 194 14.9948 194 14.9948C194 14.9948 185.166 15.1237 180.359 15.1237H176.205L171.161 36.8538H163.446C163.446 36.8538 168.247 13.2387 169.381 8.95728C169.748 7.57099 171.897 7.80894 175.526 7.80894H181.321C185.063 7.80894 189.436 7.336 191.276 8.43151ZM155.36 19.0146C155.36 19.0146 155.601 17.6199 154.545 16.0045C153.642 14.6275 152.809 14.3072 150.435 14.2336C143.732 14.0253 143.862 18.9411 143.862 18.9411L155.36 19.0146ZM162.63 13.385C163.612 16.8917 161.74 25.1312 161.74 25.1312C161.74 25.1312 151.963 24.9698 146.607 25.1312C144.942 25.1815 142.949 24.952 142.453 25.7187C141.756 26.7931 142.708 28.4469 143.515 29.1456C144.444 29.9499 146.253 30.0416 146.904 30.1231C151.251 30.6696 160.348 30.2643 160.348 30.2643L158.772 37.1704C158.772 37.1704 145.916 37.8086 139.486 36.2896C138.216 35.9904 137.026 35.3856 136.222 34.528C136.002 34.2934 135.812 33.9735 135.604 33.6971C135.438 33.4764 134.955 32.7516 134.738 32.1785C133.269 28.3053 134.91 20.8853 136.518 16.909C136.705 16.4483 136.939 15.8638 137.186 15.3672C137.495 14.748 137.756 14.0489 138.002 13.6787C138.168 13.4234 138.373 13.259 138.545 13.0181C138.744 12.7332 138.975 12.4572 139.189 12.2108C139.782 11.5295 140.456 11.0477 141.266 10.4492C143.945 8.46363 148.794 6.92222 154.618 7.51224C156.811 7.7354 160.123 8.51054 161.74 10.7426C162.173 11.3385 162.387 12.5219 162.63 13.3854V13.385ZM127.246 7.78189L134.726 7.73836C134.726 7.73836 130.557 27.31 128.433 36.8538H119.827C113.813 36.8538 108.457 37.5909 106.178 33.3298C103.968 29.1925 106.078 22.3887 107.068 17.7661C107.769 14.4948 109.244 7.80852 109.244 7.80852L116.994 7.73836C116.994 7.73836 114.804 18.1482 113.893 23.346C113.567 25.2077 112.894 26.9609 113.597 28.3375C114.264 29.6477 115.199 29.7415 118.047 29.8062C118.949 29.8273 121.905 29.8062 121.905 29.8062L127.246 7.78189ZM92.2323 21.8773C93.0156 19.1233 94.158 16.1368 94.0128 13.655C93.8556 11.0008 91.6067 8.58408 90.1555 8.07606C85.7848 6.54903 81.6931 8.68383 80.0668 10.4251C77.963 12.6804 77.2507 15.3148 76.5059 18.9415C75.9515 21.6338 75.4971 24.4761 76.5059 26.5758C78.2919 30.288 83.8618 29.4773 89.8587 29.5128C90.7487 27.1519 91.4845 24.5002 92.2323 21.8773ZM102.618 11.0126C103.472 17.1613 100.194 23.9482 97.9355 29.8501C100.238 30.0559 102.256 29.8184 102.401 29.9883C102.553 30.2085 100.858 37.033 100.267 37.0508C98.4398 37.0977 92.384 37.1476 89.8587 37.1476C81.6183 37.1476 73.9097 37.6788 69.9785 33.624C68.3821 31.9765 67.2781 29.1511 67.0108 27.1633C66.5658 23.8451 67.1235 20.1917 67.9012 17.1795C68.6046 14.4598 69.5062 11.8934 70.8685 9.54392C74.3312 3.56259 80.3546 -0.877347 90.4519 0.147578C92.4104 0.347068 95.2231 1.19575 96.9801 2.20292C97.1014 2.2735 97.5263 2.60824 97.6237 2.66699C99.9978 4.1619 102.161 7.72949 102.618 11.0126ZM66.1592 7.8174C65.6608 10.0638 65.1624 12.6102 64.6371 14.83H56.3289C56.9725 12.3693 57.4653 9.92304 58.1094 7.78232C60.7679 7.78232 63.2398 7.8174 66.1596 7.8174H66.1592ZM56.0321 16.8858H64.0439C62.9963 22.6237 60.922 31.8793 59.2962 38.3221C58.2785 42.3542 57.599 45.2963 54.8453 47.4251C54.5988 47.6162 54.4566 47.5253 54.2516 47.7189C53.7443 48.1978 51.3971 48.7531 50.0979 48.8934C47.9852 49.12 45.5966 48.923 43 48.8702C43.6795 46.4125 44.4482 43.4611 45.0538 41.2583C51.383 42.0165 51.5431 36.096 52.7684 30.3936C53.4773 27.0987 55.6259 18.207 56.0321 16.8858Z" fill="white"/>
<path fill-rule="evenodd" clip-rule="evenodd" d="M37 32.2647L36.8305 32.707C33.9414 38.3691 28.8216 41.8428 21.5192 41.996C18.1055 42.0669 14.8529 41.1853 12.728 40.2269C8.14264 38.1535 4.28563 34.3084 2.17935 30.2002C-0.842147 24.311 -1.38706 16.1188 4.8955 10C4.9925 10 4.13338 11.3268 4.23038 11.3268L4.05746 11.893C-0.469731 26.157 13.4783 38.381 27.0371 36.9829C30.2957 36.6467 34.4509 34.8509 37 32.2647Z" fill="white"/>
<path fill-rule="evenodd" clip-rule="evenodd" d="M28.8267 25.931C32.2713 25.9539 35.8692 24.3797 38 22.1694C36.1359 26.7964 30.7385 29.7704 23.5008 28.8246C17.4404 28.0317 11.6673 22.0682 11.0728 16.0927C10.638 11.744 12.1878 9.14851 14.7419 6C13.8543 7.64672 13.5225 8.91654 13.4399 9.72657C12.4697 19.1338 21.1248 25.8814 28.8267 25.931Z" fill="white"/>
<path fill-rule="evenodd" clip-rule="evenodd" d="M37.9996 13.9902C37.4586 15.186 34.3431 17.444 32.9672 17.7264C27.5191 18.8446 24.03 16.3556 22.2022 13.5234C21.9307 13.1005 21.4284 11.9453 21.3385 11.6514C20.6297 9.32951 20.9554 5.81769 23.0699 4C22.4329 5.72855 22.34 7.73613 22.6752 9.04135C22.8784 9.83037 23.4972 11.2081 24.1165 12.0747C25.2433 13.6532 25.9581 14.0367 27.4055 14.875C28.0575 15.2523 28.7568 15.555 29.059 15.6379C30.4314 16.0273 33.3291 17.0526 38 13.9902" fill="white"/>
</svg>
