<svg width="200" height="43" viewBox="0 0 200 43" fill="none" xmlns="http://www.w3.org/2000/svg">
<path d="M0 26.9808C0 24.7326 0.378504 22.6348 1.13551 20.6876C1.89252 18.7407 2.95217 17.0442 4.31486 15.5989C5.67755 14.1536 7.3077 13.0194 9.2053 12.1966C11.1029 11.3734 13.1819 10.9617 15.4428 10.9617C17.159 10.9617 18.7183 11.2129 20.1213 11.7144C21.5243 12.2164 22.8819 13.0396 24.1937 14.1835V11.564H31.885V42.3981H24.1937V39.7781C22.8819 40.9225 21.5243 41.7456 20.1213 42.2472C18.7183 42.7492 17.159 43 15.4428 43C13.1819 43 11.1025 42.5886 9.2053 41.7655C7.3077 40.9427 5.67755 39.8085 4.31486 38.3632C2.95217 36.9175 1.89252 35.2214 1.13551 33.2741C0.378504 31.3272 0 29.2295 0 26.9808ZM16.4422 35.8035C17.0479 35.8035 17.6837 35.7385 18.35 35.6079C19.0159 35.4772 19.6873 35.2564 20.3637 34.9453C21.0398 34.6342 21.701 34.2178 22.347 33.6956C22.9929 33.1738 23.6084 32.5314 24.1937 31.7685V22.1931C23.6084 21.4306 22.9929 20.7933 22.347 20.2812C21.7006 19.7695 21.0398 19.3527 20.3633 19.0315C19.6869 18.7103 19.0159 18.4844 18.3496 18.3542C17.6837 18.2235 17.0475 18.1586 16.4422 18.1582C15.2512 18.1582 14.1356 18.3791 13.0963 18.8208C12.0562 19.2625 11.153 19.88 10.3862 20.6728C9.61899 21.4656 9.01839 22.3992 8.58437 23.4732C8.15034 24.5471 7.93332 25.7163 7.93332 26.9808C7.93332 28.2457 8.15034 29.4149 8.58437 30.4889C9.01839 31.5628 9.61899 32.4964 10.3862 33.2893C11.1533 34.0825 12.0566 34.6996 13.0959 35.1413C14.136 35.5826 15.2512 35.8035 16.4422 35.8035ZM51.1113 18.5735C47.467 18.5999 44.3009 21.1254 44.3009 24.8734V42.3981H36.6097V25.0841C36.6527 17.8642 42.9402 11.0589 51.001 10.9617H51.2161C59.2769 11.0589 65.5644 17.8642 65.6074 25.0841V42.3981H57.9161V24.8734C57.9161 21.1254 54.7505 18.5999 51.1058 18.5735H51.1113ZM69.2482 26.9808C69.2482 24.7326 69.6267 22.6348 70.3837 20.6876C71.1407 18.7407 72.2007 17.0442 73.563 15.5989C74.9257 14.1536 76.5559 13.0194 78.4535 12.1966C80.3511 11.3734 82.4301 10.9617 84.6913 10.9617C86.4071 10.9617 87.9716 11.2129 89.3847 11.7144C90.7978 12.2164 92.1504 13.0295 93.4423 14.1536V2.31984H101.134V42.3981H93.4423V39.8085C92.1504 40.9524 90.7978 41.7705 89.3847 42.2624C87.9716 42.7543 86.4071 43 84.6913 43C82.4301 43 80.3511 42.5886 78.4535 41.7655C76.5559 40.9427 74.9257 39.8085 73.563 38.3632C72.2007 36.9179 71.1407 35.2214 70.3841 33.2741C69.6267 31.3272 69.2482 29.2295 69.2482 26.9808ZM85.6904 35.8035C86.2961 35.8035 86.9319 35.7385 87.5982 35.6079C88.2641 35.4772 88.9354 35.2564 89.6119 34.9453C90.2879 34.6342 90.9492 34.2178 91.5951 33.6956C92.2411 33.1738 92.8565 32.5314 93.4423 31.7685V22.1931C92.8565 21.4306 92.2411 20.7933 91.5951 20.2812C90.9492 19.7695 90.2879 19.3527 89.6119 19.0315C88.9354 18.7103 88.2641 18.4844 87.5982 18.3542C86.9319 18.2235 86.2961 18.1586 85.6904 18.1582C84.4994 18.1582 83.3842 18.3791 82.3445 18.8208C81.3047 19.2625 80.4011 19.88 79.6347 20.6728C78.8672 21.4656 78.2666 22.3992 77.8325 23.4732C77.3985 24.5471 77.1815 25.7163 77.1819 26.9808C77.1819 28.2457 77.3985 29.4149 77.8325 30.4889C78.2666 31.5628 78.8672 32.4964 79.6343 33.2893C80.4015 34.0825 81.3047 34.6996 82.3445 35.1413C83.3842 35.5826 84.4994 35.8035 85.6904 35.8035ZM137.151 35.8035C138.302 35.8035 139.387 35.5877 140.406 35.1561C141.41 34.7353 142.316 34.1155 143.071 33.3344C143.828 32.5517 144.423 31.6231 144.857 30.5492C145.291 29.4752 145.508 28.2861 145.508 26.9808C145.508 25.6961 145.286 24.5168 144.842 23.4428C144.398 22.3689 143.792 21.4403 143.025 20.6576C142.265 19.8795 141.36 19.2556 140.361 18.8208C139.351 18.3791 138.281 18.1586 137.151 18.1582C136 18.1582 134.915 18.3791 133.896 18.8208C132.893 19.2506 131.988 19.8751 131.231 20.6576C130.474 21.4403 129.874 22.3689 129.429 23.4428C128.985 24.5168 128.763 25.6961 128.763 26.9812C128.763 28.2858 128.98 29.4752 129.414 30.5492C129.848 31.6231 130.444 32.5517 131.201 33.3344C131.955 34.1155 132.862 34.7353 133.866 35.1561C134.885 35.5877 135.98 35.8035 137.151 35.8035ZM137.151 43C134.91 43 132.801 42.5987 130.822 41.7958C128.844 40.9928 127.113 39.8738 125.63 38.4382C124.146 37.003 122.975 35.3065 122.117 33.3495C121.259 31.3922 120.83 29.2695 120.83 26.9808C120.83 24.7528 121.259 22.6648 122.117 20.7179C122.975 18.7706 124.141 17.0745 125.614 15.6292C127.088 14.1835 128.819 13.0446 130.807 12.2114C132.796 11.3785 134.91 10.9617 137.151 10.9617C139.391 10.9617 141.501 11.3785 143.479 12.2114C145.458 13.0446 147.184 14.1835 148.657 15.6292C150.131 17.0745 151.297 18.771 152.155 20.7179C153.013 22.6652 153.441 24.7528 153.441 26.9808C153.441 29.2695 153.013 31.3922 152.155 33.3495C151.297 35.3065 150.126 37.003 148.642 38.4382C147.158 39.8738 145.433 40.9928 143.464 41.7958C141.496 42.5987 139.392 43 137.151 43ZM160.733 9.1497C160.11 9.1497 159.521 9.02877 158.966 8.78653C158.421 8.55132 157.926 8.21628 157.506 7.79889C157.086 7.38105 156.749 6.88837 156.513 6.3466C156.269 5.79258 156.144 5.19386 156.148 4.58907C156.148 3.96966 156.269 3.37902 156.513 2.81754C156.747 2.27012 157.084 1.77227 157.506 1.35086C157.926 0.933485 158.422 0.598446 158.966 0.363226C159.524 0.120715 160.126 -0.00300042 160.734 5.52539e-05C161.357 5.52539e-05 161.951 0.120983 162.515 0.363226C163.066 0.595863 163.566 0.931104 163.99 1.35086C164.412 1.77228 164.749 2.27012 164.983 2.81754C165.227 3.37902 165.349 3.96966 165.349 4.58946C165.349 5.20887 165.227 5.79484 164.983 6.34699C164.747 6.88862 164.41 7.38116 163.99 7.79889C163.566 8.2187 163.066 8.55395 162.515 8.78653C161.953 9.02821 161.346 9.15185 160.733 9.1497ZM156.887 11.564H164.579V42.3981H156.887V11.564ZM168.115 26.9808C168.115 24.7326 168.493 22.6348 169.251 20.6876C170.008 18.7407 171.067 17.0442 172.43 15.5989C173.793 14.1536 175.423 13.0194 177.32 12.1966C179.217 11.3734 181.297 10.9617 183.558 10.9617C185.274 10.9617 186.838 11.2129 188.251 11.7144C189.664 12.2164 191.017 13.0295 192.309 14.1536V2.31984H200V42.3981H192.309V39.8085C191.017 40.9524 189.664 41.7705 188.251 42.2624C186.838 42.7543 185.274 43 183.558 43C181.297 43 179.217 42.5886 177.32 41.7655C175.423 40.9427 173.793 39.8085 172.43 38.3632C171.067 36.9179 170.008 35.2214 169.251 33.2741C168.493 31.3272 168.115 29.2295 168.115 26.9808ZM184.557 35.8035C185.163 35.8035 185.799 35.7385 186.465 35.6079C187.131 35.4772 187.802 35.2564 188.478 34.9453C189.155 34.6342 189.816 34.2178 190.462 33.6956C191.108 33.1738 191.723 32.5314 192.309 31.7685V22.1931C191.723 21.4306 191.108 20.7933 190.462 20.2812C189.816 19.7695 189.155 19.3527 188.478 19.0315C187.802 18.7103 187.131 18.4844 186.465 18.3542C185.799 18.2235 185.163 18.1586 184.557 18.1582C183.366 18.1582 182.251 18.3791 181.211 18.8208C180.171 19.2625 179.268 19.88 178.501 20.6728C177.734 21.4656 177.133 22.3992 176.699 23.4732C176.265 24.5471 176.048 25.7163 176.048 26.9808C176.048 28.2457 176.265 29.4149 176.699 30.4889C177.133 31.5628 177.734 32.4964 178.501 33.2893C179.268 34.0825 180.172 34.6996 181.211 35.1413C182.251 35.5826 183.366 35.8035 184.557 35.8035ZM120.097 18.4809C114.943 18.4809 112.67 21.1254 112.67 24.8734V42.3981H104.978V25.0841C105.021 17.8642 109.215 10.7665 120.097 10.7665" fill="white"/>
</svg>
