<svg width="224" height="54" viewBox="0 0 224 54" fill="none" xmlns="http://www.w3.org/2000/svg">
<path d="M224 11.3294H222.941V8.68235L221.883 10.4294H221.354L220.824 8.68235V11.3294H219.766V6.82941H220.824L221.883 9.26471L222.941 6.82941H224V11.3294ZM219.237 7.62353H218.178V11.3294H217.119V7.62353H216.061V6.82941H219.237V7.62353ZM213.414 24.3H210.239V14.1353L206.534 20.7529H204.417L201.241 14.1353V24.3H197.536V6.82941H201.241L205.475 16.2529L210.239 6.82941H213.414V24.3ZM192.773 24.3H189.068L188.009 21.2294H182.187L181.129 24.3H177.424L183.775 6.82941H186.421L192.773 24.3ZM187.48 18.3176L185.363 11.9647L183.246 18.3176H187.48ZM172.131 24.3H160.487V6.82941H172.131V9.84706H164.192V13.9765H171.072V16.9941H164.192V21.2824H172.131V24.3ZM155.194 9.84706H150.96V24.3H147.255V9.84706H142.492V6.82941H155.194V9.84706ZM138.257 19.1647C138.257 22.7647 135.082 24.4059 131.906 24.4588C128.73 24.4588 126.613 23.7176 125.555 22.1294L127.672 19.9588C128.73 20.9118 129.789 21.4412 131.906 21.4412C134.023 21.4412 135.082 20.7 135.082 19.2706C135.082 17.9471 134.023 17.3647 132.965 17.1529L130.848 16.8882C127.672 16.4647 126.084 14.8235 126.084 11.9647C126.084 10.3765 126.613 9.10588 127.672 8.1C128.73 7.14706 130.318 6.67059 131.906 6.67059C134.552 6.67059 136.14 7.35882 137.728 8.68235L135.611 10.8529C134.552 10.0588 133.494 9.63529 131.906 9.63529C130.318 9.74118 129.26 10.3235 129.26 11.8588C129.26 13.0765 130.318 13.6588 131.377 13.7647L133.494 14.0824C136.14 14.4 138.257 16.2 138.257 19.1647ZM111.264 15.9882C111.264 20.7529 107.03 24.6176 102.267 24.6176C97.5031 24.6176 93.7982 20.7529 93.7982 15.9882C93.7982 11.2765 97.5031 7.41177 102.267 7.41177C107.03 7.41177 111.264 11.2765 111.264 15.9882ZM102.267 0C93.7982 0 86.3884 7.09412 86.3884 15.9353L76.3321 30.2824C75.8028 30.2289 75.8028 30.1765 75.2736 30.1765C73.1565 30.1765 71.0394 30.8118 68.9223 31.8706L23.7221 13.6588C22.5048 8.25882 17.6884 4.23529 11.9722 4.23529C5.4092 4.23529 0 9.63529 0 16.2529C0 22.8176 5.4092 28.2176 11.9722 28.2176C14.2486 28.2176 16.3123 27.6353 18.1123 26.5235L63.63 44.7353C64.6886 50.2941 69.4521 54 75.2741 54C81.0961 54 86.3889 49.2353 86.9182 43.3588L102.267 32.1353C111.265 32.1353 118.675 24.9353 118.675 16.0412C118.674 7.2 111.264 0 102.267 0ZM102.267 5.29412C108.618 5.29412 113.381 10.1118 113.381 16.0412C113.381 22.0235 108.618 26.8412 102.267 26.8412C96.4446 26.8412 91.6811 22.0235 91.6811 16.0412C91.6811 10.1118 96.4446 5.29412 102.267 5.29412ZM11.9722 7.41177C15.3596 7.41177 18.3235 9.26471 19.806 12.0706L15.4125 10.3235C11.8664 9.05294 7.94972 10.8 6.52068 14.2941C5.14456 17.8412 6.73239 21.8118 10.1727 23.3471L13.8776 24.8294C13.2949 24.9882 12.6603 25.0412 11.9717 25.0412C7.10288 25.0412 3.18571 21.1235 3.18571 16.2529C3.18624 11.3294 7.10288 7.41177 11.9722 7.41177ZM75.2736 33.3529C80.037 33.3529 83.742 37.3235 83.742 42.1941C83.742 47.1176 80.037 50.8235 75.2736 50.8235C71.5686 50.8235 68.9223 49.2353 67.3344 46.3235C68.9223 47.1176 69.9808 47.6471 71.5686 48.1765C75.2736 49.7647 78.9785 47.6471 80.5663 44.2588C81.6249 40.977 80.5663 36.477 76.8614 35.0476L73.1565 33.5652C73.6857 33.4588 74.7443 33.3529 75.2736 33.3529Z" fill="white"/>
</svg>
