<svg width="129" height="93" viewBox="0 0 129 93" fill="none" xmlns="http://www.w3.org/2000/svg">
<g clip-path="url(#clip0)">
<path fill-rule="evenodd" clip-rule="evenodd" d="M43.0267 43.5478L45.933 37.2574C48.1098 32.4854 46.8108 29.0094 42.036 26.8294L32.9525 22.6828L37.6116 12.3212C39.2661 8.59709 41.9616 7.67613 45.6858 9.33064L64.0807 17.6145C67.8049 19.269 68.7269 21.9645 67.0713 25.6887L58.7885 44.0836C57.1339 47.8078 54.4385 48.7298 50.7143 47.0742L43.0267 43.5478Z" fill="#FF9FC8"/>
<path fill-rule="evenodd" clip-rule="evenodd" d="M38.0193 41.2681L32.3182 38.7916C28.594 37.1371 27.6721 34.4416 29.3276 30.7174L30.6816 27.804L39.7652 31.9516C40.0672 32.0383 40.3449 32.1941 40.5764 32.4066C40.8079 32.6191 40.9867 32.8825 41.0989 33.176C41.211 33.4696 41.2534 33.7851 41.2226 34.0978C41.1918 34.4105 41.0888 34.7118 40.9216 34.9778L38.0193 41.2681Z" fill="#FF9FC8"/>
<path fill-rule="evenodd" clip-rule="evenodd" d="M106.854 85.3387C106.777 83.8545 107.284 82.399 108.265 81.2833C108.77 80.7099 109.388 80.246 110.079 79.9204C110.77 79.5947 111.521 79.4141 112.284 79.3898C113.03 79.3459 113.777 79.459 114.476 79.7217C115.176 79.9844 115.812 80.3908 116.345 80.9148C116.907 81.4047 117.364 82.0032 117.688 82.6743C118.013 83.3454 118.198 84.0752 118.233 84.8198C118.279 85.5826 118.167 86.3465 117.906 87.0645C117.644 87.7825 117.239 88.4393 116.713 88.9944C116.224 89.5495 115.622 89.9947 114.948 90.3005C114.274 90.6063 113.543 90.7659 112.803 90.7688C111.285 90.8482 109.794 90.3454 108.634 89.3629C108.076 88.8511 107.63 88.2294 107.323 87.5369C107.017 86.8443 106.857 86.096 106.854 85.3387V85.3387Z" fill="#8ABCF7"/>
<path fill-rule="evenodd" clip-rule="evenodd" d="M99.1652 36.7714C99.0941 35.5882 99.2635 34.4028 99.6634 33.2869C100.063 32.171 100.685 31.1478 101.492 30.2791C103.148 28.508 105.436 27.4605 107.859 27.3633C109.042 27.2921 110.228 27.4616 111.343 27.8614C112.459 28.2613 113.482 28.8832 114.351 29.6896C115.261 30.4652 115.999 31.4215 116.519 32.4977C117.039 33.5739 117.33 34.7465 117.373 35.941C117.45 37.1351 117.272 38.3319 116.851 39.4521C116.43 40.5723 115.777 41.5902 114.933 42.4385C114.158 43.3409 113.199 44.0672 112.12 44.5686C111.042 45.0701 109.868 45.3352 108.679 45.3461C106.257 45.4706 103.884 44.6368 102.073 43.025C101.199 42.2264 100.492 41.2625 99.9932 40.1892C99.4941 39.1158 99.2127 37.9541 99.1652 36.7714V36.7714Z" fill="#DDDDFF"/>
<path fill-rule="evenodd" clip-rule="evenodd" d="M32.9575 22.7969L42.0411 26.9445C46.8131 29.1213 48.1121 32.5973 45.9381 37.3724L43.0348 43.6618L38.9907 52.5134C36.8139 57.2853 33.3379 58.5843 28.5628 56.4103L13.4197 49.4601C8.6444 47.2828 7.46455 43.9162 9.52795 39.146L16.4731 23.8911C18.6497 19.1208 22.0119 17.823 26.7862 19.9993L32.9575 22.7969ZM30.6768 27.8072L24.5054 25.0097C24.2391 24.8428 23.9376 24.7401 23.6248 24.7097C23.3119 24.6794 22.9963 24.7223 22.7029 24.8349C22.4095 24.9475 22.1463 25.1269 21.9341 25.3588C21.7219 25.5906 21.5666 25.8687 21.4804 26.1709L14.644 41.3078C14.0238 42.7049 14.3026 43.8326 15.6996 44.4528L30.8418 51.4071C31.1184 51.5701 31.4279 51.6693 31.7476 51.6975C32.0674 51.7257 32.3894 51.6821 32.6903 51.5701C32.9911 51.458 33.2631 51.2803 33.4865 51.0498C33.7099 50.8192 33.8791 50.5418 33.9816 50.2376L38.0245 41.382L40.9308 35.0916C41.0978 34.825 41.2005 34.5232 41.2308 34.2101C41.261 33.897 41.2179 33.5812 41.105 33.2876C40.992 32.994 40.8122 32.7307 40.5799 32.5187C40.3476 32.3066 40.0691 32.1515 39.7664 32.0657L30.6768 27.8072Z" fill="#54B2C6"/>
</g>
<defs>
<clipPath id="clip0">
<rect width="119.18" height="77.772" fill="white" transform="translate(118.186 92.4868) rotate(-172.593)"/>
</clipPath>
</defs>
</svg>
