<svg width="1349" height="739" viewBox="0 0 1349 739" fill="none" xmlns="http://www.w3.org/2000/svg">
<g opacity="0.1">
<path fill-rule="evenodd" clip-rule="evenodd" d="M1092.29 205.806L1047.61 296.481C1014.12 365.318 1031.79 416.483 1100.62 449.977L1231.59 513.78L1159.85 663.196C1134.36 716.901 1094.72 729.348 1041.01 703.856L775.764 576.319C722.051 550.825 709.603 511.187 735.097 457.475L862.632 192.225C888.126 138.513 927.763 126.064 981.476 151.558L1092.29 205.806Z" fill="#FF9FC8"/>
<path fill-rule="evenodd" clip-rule="evenodd" d="M1164.49 240.894L1246.73 279.1C1300.43 304.593 1312.88 344.23 1287.39 397.943L1266.64 439.924L1135.68 376.121C1115.54 366.56 1110.25 351.709 1119.81 331.569L1164.49 240.894Z" fill="#FF9FC8"/>
<path fill-rule="evenodd" clip-rule="evenodd" d="M271.113 284.15C271.862 320.703 259.219 352.544 234.807 377.981C208.734 403.448 177.437 417.387 140.886 418.137C104.334 418.887 72.4918 406.243 47.0547 381.832C19.9249 355.792 6.02009 326.159 5.2703 289.602C4.52051 253.046 17.1645 221.209 43.2379 195.738C67.6149 168.642 98.9444 156.365 135.501 155.615C172.058 154.866 203.895 167.51 230.991 191.887C256.458 217.957 270.363 247.597 271.113 284.15Z" fill="#DDDDFF"/>
<path fill-rule="evenodd" clip-rule="evenodd" d="M1231.55 512.117L1100.59 448.315C1031.75 414.823 1014.09 363.658 1047.59 294.82L1092.27 204.145L1154.48 76.5425C1187.97 7.70577 1239.14 -9.96553 1307.97 23.5287L1526.24 130.417C1595.08 163.912 1611.06 213.45 1579.22 282.253L1472.37 502.186C1438.87 571.03 1389.37 588.666 1320.53 555.173L1231.55 512.117ZM1266.64 439.924L1355.62 482.979C1375.76 492.539 1390.61 487.248 1400.17 467.105L1505.4 248.862C1514.96 228.718 1511.3 212.172 1491.15 202.611L1272.88 95.7208C1252.73 86.1612 1237.88 91.4513 1226.66 111.629L1164.45 239.231L1119.77 329.906C1110.21 350.049 1115.5 364.901 1135.64 374.461L1266.64 439.924Z" fill="#6BB94E"/>
</g>
<g clip-path="url(#clip0)">
<path fill-rule="evenodd" clip-rule="evenodd" d="M1007.6 289.905L999.839 295.756C993.987 300.216 993.29 305.372 997.75 311.225L1006.23 322.366L993.612 332.088C989.1 335.596 985.159 334.95 981.653 330.439L964.399 308.017C960.891 303.505 961.537 299.564 966.049 296.058L988.47 278.804C992.982 275.296 996.923 275.943 1000.43 280.454L1007.6 289.905Z" fill="#FF9FC8"/>
<path fill-rule="evenodd" clip-rule="evenodd" d="M1012.27 296.037L1017.68 302.874C1021.19 307.386 1020.54 311.327 1016.03 314.834L1012.44 317.543L1003.95 306.401C1002.64 304.709 1002.83 303.206 1004.52 301.89L1012.27 296.037Z" fill="#FF9FC8"/>
<path fill-rule="evenodd" clip-rule="evenodd" d="M956.38 195.981C955.492 197.865 953.902 199.327 951.951 200.056C950.947 200.431 949.877 200.596 948.807 200.542C947.736 200.487 946.688 200.214 945.728 199.739C944.777 199.298 943.929 198.663 943.238 197.875C942.548 197.086 942.031 196.162 941.72 195.161C941.349 194.183 941.18 193.14 941.223 192.096C941.265 191.051 941.519 190.025 941.968 189.081C942.418 188.108 943.063 187.238 943.862 186.524C944.661 185.81 945.598 185.267 946.615 184.929C947.588 184.567 948.626 184.415 949.662 184.484C950.698 184.552 951.707 184.839 952.624 185.326C954.553 186.233 956.063 187.842 956.847 189.825C957.198 190.828 957.338 191.892 957.257 192.952C957.177 194.011 956.878 195.043 956.38 195.981V195.981Z" fill="#8ABCF7"/>
<path fill-rule="evenodd" clip-rule="evenodd" d="M933.719 261.108C933.023 262.617 932.028 263.97 930.795 265.084C929.562 266.199 928.116 267.051 926.544 267.591C923.324 268.682 919.803 268.461 916.744 266.977C915.235 266.281 913.882 265.286 912.768 264.053C911.654 262.82 910.801 261.374 910.261 259.802C909.651 258.241 909.371 256.571 909.441 254.898C909.51 253.224 909.926 251.582 910.663 250.078C911.359 248.551 912.372 247.19 913.634 246.084C914.896 244.978 916.378 244.153 917.983 243.664C919.538 243.062 921.204 242.799 922.869 242.893C924.534 242.987 926.16 243.436 927.637 244.21C930.713 245.66 933.094 248.263 934.265 251.454C934.816 253.02 935.051 254.679 934.958 256.336C934.864 257.993 934.443 259.615 933.719 261.108V261.108Z" fill="#DDDDFF"/>
<path fill-rule="evenodd" clip-rule="evenodd" d="M1006.3 322.223L997.819 311.081C993.359 305.228 994.056 300.07 999.91 295.608L1007.67 289.757L1018.53 281.495C1024.38 277.035 1029.54 277.731 1034 283.584L1048.11 302.206C1052.57 308.059 1051.8 313.002 1046.09 317.534L1027.41 331.793C1021.55 336.252 1016.54 335.625 1012.08 329.771L1006.3 322.223ZM1012.44 317.543L1018.21 325.086C1019.52 326.778 1021.03 326.966 1022.72 325.65L1041.2 311.471C1042.89 310.155 1043.29 308.576 1041.97 306.884L1027.86 288.269C1026.54 286.578 1025.04 286.389 1023.2 287.636L1012.34 295.898L1004.59 301.749C1002.89 303.064 1002.71 304.567 1004.02 306.26L1012.44 317.543Z" fill="#6BB94E"/>
</g>
<g clip-path="url(#clip1)">
<path fill-rule="evenodd" clip-rule="evenodd" d="M1011.51 418.19L1014.42 411.9C1016.59 407.128 1015.3 403.652 1010.52 401.472L1001.44 397.325L1006.1 386.964C1007.75 383.239 1010.45 382.318 1014.17 383.973L1032.57 392.257C1036.29 393.911 1037.21 396.607 1035.56 400.331L1027.27 418.726C1025.62 422.45 1022.92 423.372 1019.2 421.717L1011.51 418.19Z" fill="#FF9FC8"/>
<path fill-rule="evenodd" clip-rule="evenodd" d="M1006.5 415.91L1000.8 413.434C997.078 411.779 996.156 409.084 997.812 405.36L999.166 402.446L1008.25 406.594C1008.55 406.681 1008.83 406.836 1009.06 407.049C1009.29 407.261 1009.47 407.525 1009.58 407.818C1009.7 408.112 1009.74 408.427 1009.71 408.74C1009.68 409.053 1009.57 409.354 1009.41 409.62L1006.5 415.91Z" fill="#FF9FC8"/>
<path fill-rule="evenodd" clip-rule="evenodd" d="M1075.34 459.981C1075.26 458.497 1075.77 457.041 1076.75 455.925C1077.25 455.352 1077.87 454.888 1078.56 454.563C1079.25 454.237 1080.01 454.056 1080.77 454.032C1081.51 453.988 1082.26 454.101 1082.96 454.364C1083.66 454.627 1084.3 455.033 1084.83 455.557C1085.39 456.047 1085.85 456.645 1086.17 457.317C1086.5 457.988 1086.68 458.717 1086.72 459.462C1086.76 460.225 1086.65 460.989 1086.39 461.707C1086.13 462.425 1085.72 463.081 1085.2 463.637C1084.71 464.192 1084.11 464.637 1083.43 464.943C1082.76 465.249 1082.03 465.408 1081.29 465.411C1079.77 465.49 1078.28 464.988 1077.12 464.005C1076.56 463.493 1076.11 462.872 1075.81 462.179C1075.5 461.487 1075.34 460.738 1075.34 459.981V459.981Z" fill="#8ABCF7"/>
<path fill-rule="evenodd" clip-rule="evenodd" d="M1067.65 411.414C1067.58 410.23 1067.75 409.045 1068.15 407.929C1068.55 406.813 1069.17 405.79 1069.98 404.921C1071.63 403.15 1073.92 402.103 1076.34 402.006C1077.53 401.934 1078.71 402.104 1079.83 402.504C1080.94 402.903 1081.97 403.525 1082.84 404.332C1083.75 405.107 1084.48 406.064 1085 407.14C1085.52 408.216 1085.81 409.389 1085.86 410.583C1085.93 411.777 1085.76 412.974 1085.34 414.094C1084.91 415.214 1084.26 416.232 1083.42 417.081C1082.64 417.983 1081.68 418.709 1080.6 419.211C1079.53 419.712 1078.35 419.977 1077.16 419.988C1074.74 420.113 1072.37 419.279 1070.56 417.667C1069.68 416.869 1068.98 415.905 1068.48 414.831C1067.98 413.758 1067.7 412.596 1067.65 411.414V411.414Z" fill="#DDDDFF"/>
<path fill-rule="evenodd" clip-rule="evenodd" d="M1001.44 397.439L1010.53 401.587C1015.3 403.764 1016.6 407.239 1014.42 412.015L1011.52 418.304L1007.48 427.156C1005.3 431.928 1001.82 433.227 997.047 431.053L981.904 424.102C977.129 421.925 975.949 418.558 978.012 413.788L984.957 398.533C987.134 393.763 990.496 392.465 995.271 394.642L1001.44 397.439ZM999.161 402.449L992.99 399.652C992.723 399.485 992.422 399.382 992.109 399.352C991.796 399.322 991.481 399.364 991.187 399.477C990.894 399.59 990.631 399.769 990.418 400.001C990.206 400.233 990.051 400.511 989.965 400.813L983.128 415.95C982.508 417.347 982.787 418.475 984.184 419.095L999.326 426.049C999.603 426.212 999.912 426.311 1000.23 426.34C1000.55 426.368 1000.87 426.324 1001.17 426.212C1001.48 426.1 1001.75 425.922 1001.97 425.692C1002.19 425.461 1002.36 425.184 1002.47 424.88L1006.51 416.024L1009.42 409.734C1009.58 409.467 1009.68 409.165 1009.72 408.852C1009.75 408.539 1009.7 408.223 1009.59 407.93C1009.48 407.636 1009.3 407.373 1009.06 407.161C1008.83 406.949 1008.55 406.794 1008.25 406.708L999.161 402.449Z" fill="#54B2C6"/>
</g>
<defs>
<clipPath id="clip0">
<rect width="136.282" height="156.865" fill="white" transform="matrix(-0.285182 0.958473 -0.958474 -0.285181 1080.59 222.101)"/>
</clipPath>
<clipPath id="clip1">
<rect width="119.18" height="77.772" fill="white" transform="translate(1086.67 467.129) rotate(-172.593)"/>
</clipPath>
</defs>
</svg>
