<?xml version="1.0" encoding="utf-8"?>
<!-- Generator: Adobe Illustrator 21.0.0, SVG Export Plug-In . SVG Version: 6.00 Build 0)  -->
<svg version="1.1" id="Слой_1" xmlns="http://www.w3.org/2000/svg" xmlns:xlink="http://www.w3.org/1999/xlink" x="0px" y="0px"
	 viewBox="0 0 824 913" style="enable-background:new 0 0 824 913;" xml:space="preserve">
<style type="text/css">
	.st0{opacity:0.1;}
	.st1{fill:#FF9FC8;}
	.st2{fill:#6BB94E;}
</style>
<g class="st0">
	<path class="st1" d="M107,364.6l28.9,96.9c22.2,73.3,70,98.8,143.2,76.6l139.4-42.2l48.9,158.4c17.8,56.7-2.8,92.8-59.5,110.6
		l-281.2,86.7c-56.7,17.8-92.8-2.8-110.6-59.5l-86.7-281.2c-17.8-56.7,2.8-92.8,59.5-110.6L107,364.6z"/>
	<path class="st1" d="M183.8,341.2l86.3-27.9c56.7-17.8,92.8,2.8,110.6,59.5l13.3,44.9L254.6,460c-21.3,6.7-35.2-0.6-41.9-21.9
		L183.8,341.2z"/>
	<path class="st2" d="M417.4,494.6l-139.4,42.2c-73.3,22.2-121-3.3-143.2-76.6l-28.9-96.9L64.8,227.5c-22.2-73.3,3.3-121,76.6-143.2
		l232.7-70c73.3-22.2,118.6,3.3,142.1,75.4l71.1,233.9c22.2,73.3-2.1,119.8-75.4,142.1L417.4,494.6z M394,417.8l94.5-28.9
		c21.3-6.7,28.6-20.7,21.9-41.9l-71.2-231.6c-6.7-21.3-20.6-30.9-41.9-24.2l-232.8,70c-21.3,6.7-28.6,20.7-23.1,43.1L182.7,340
		l28.9,96.9c6.7,21.3,20.7,28.6,41.9,21.9L394,417.8z"/>
</g>
</svg>
