<svg width="23" height="23" viewBox="0 0 23 23" fill="none" xmlns="http://www.w3.org/2000/svg">
<path d="M11.5 0C5.1589 0 0 5.1589 0 11.5C0 17.8411 5.1589 23 11.5 23C17.8411 23 23 17.8411 23 11.5C23 5.1589 17.8411 0 11.5 0ZM11.5 20.553C6.50822 20.553 2.44677 16.492 2.44677 11.5C2.44677 6.50799 6.50822 2.447 11.5 2.447C16.4918 2.447 20.5532 6.50799 20.5532 11.5C20.5532 16.492 16.4918 20.553 11.5 20.553Z" fill="#0D4A59"/>
<path d="M17.1724 11.1176H12.6552V4.94118C12.6552 4.42141 12.2847 4 11.8276 4C11.3706 4 11 4.42141 11 4.94118V12.0588C11 12.5786 11.3706 13 11.8276 13H17.1724C17.6294 13 18 12.5786 18 12.0588C18 11.5391 17.6294 11.1176 17.1724 11.1176Z" fill="#0D4A59"/>
</svg>
