<svg width="23" height="23" viewBox="0 0 23 23" fill="none" xmlns="http://www.w3.org/2000/svg">
<path d="M4.6539 7H0.346102C0.154915 7 0 7.17065 0 7.38108V22.6189C0 22.8294 0.154915 23 0.346102 23H4.6539C4.84508 23 5 22.8294 5 22.6189V7.38108C5 7.17065 4.84508 7 4.6539 7Z" fill="#3891B3"/>
<path d="M3.00121 0C1.34633 0 0 1.34552 0 2.99938C0 4.65397 1.34633 6 3.00121 6C4.65477 6 6 4.6539 6 2.99938C6.00007 1.34552 4.65477 0 3.00121 0Z" fill="#3891B3"/>
<path d="M17.146 7C15.3065 7 13.9467 7.80001 13.122 8.70902V7.74223C13.122 7.53666 12.9573 7.36996 12.754 7.36996H8.36796C8.1647 7.36996 8 7.53666 8 7.74223V22.6277C8 22.8333 8.1647 22.9999 8.36796 22.9999H12.9379C13.1411 22.9999 13.3058 22.8333 13.3058 22.6277V15.2628C13.3058 12.781 13.9721 11.8142 15.6821 11.8142C17.5445 11.8142 17.6925 13.3642 17.6925 15.3905V22.6277C17.6925 22.8334 17.8572 23 18.0604 23H22.632C22.8353 23 23 22.8334 23 22.6277V14.4628C23 10.7725 22.3045 7 17.146 7Z" fill="#3891B3"/>
</svg>
