<svg width="29" height="29" viewBox="0 0 29 29" fill="none" xmlns="http://www.w3.org/2000/svg">
<path d="M6.51546 9H0.484543C0.216881 9 0 9.21331 0 9.47635V28.5236C0 28.7868 0.216881 29 0.484543 29H6.51546C6.78312 29 7 28.7868 7 28.5236V9.47635C7 9.21331 6.78312 9 6.51546 9Z" fill="#258700"/>
<path d="M4.00161 0C1.7951 0 0 1.79403 0 3.99917C0 6.20529 1.7951 8 4.00161 8C6.20636 8 8 6.20519 8 3.99917C8.0001 1.79403 6.20636 0 4.00161 0Z" fill="#258700"/>
<path d="M21.5849 9C19.2549 9 17.5325 10 16.4879 11.1363V9.92779C16.4879 9.67083 16.2792 9.46245 16.0218 9.46245H10.4661C10.2086 9.46245 10 9.67083 10 9.92779V28.5346C10 28.7916 10.2086 28.9999 10.4661 28.9999H16.2546C16.5121 28.9999 16.7207 28.7916 16.7207 28.5346V19.3285C16.7207 16.2263 17.5647 15.0177 19.7307 15.0177C22.0897 15.0177 22.2771 16.9552 22.2771 19.4881V28.5347C22.2771 28.7917 22.4858 29 22.7432 29H28.5339C28.7914 29 29 28.7917 29 28.5347V18.3285C29 13.7156 28.119 9 21.5849 9Z" fill="#258700"/>
</svg>
