<svg width="18" height="17" viewBox="0 0 18 17" fill="none" xmlns="http://www.w3.org/2000/svg">
<path d="M8.37615 0.38413C8.49382 0.149042 8.73613 0 9.00097 0C9.26581 0 9.50851 0.149042 9.62579 0.38413L11.8668 4.87653C11.9682 5.07973 12.1647 5.22071 12.3918 5.25336L17.4036 5.9736C17.6665 6.01125 17.884 6.19333 17.9659 6.44263C18.0478 6.69193 17.9795 6.9662 17.7896 7.14904L14.1634 10.6462C13.9991 10.8044 13.9242 11.0326 13.9626 11.2562L14.8185 16.1941C14.8628 16.4531 14.756 16.7143 14.5408 16.8687C14.3261 17.0223 14.0422 17.0427 13.8069 16.9213L9.32406 14.5896C9.12135 14.484 8.87865 14.484 8.67555 14.5896L4.19271 16.9209C3.95816 17.0427 3.67351 17.0227 3.45877 16.8687C3.24402 16.7146 3.13684 16.4531 3.1815 16.1941L4.03737 11.2562C4.07621 11.0326 4.00087 10.8044 3.83661 10.6462L0.210412 7.14904C0.02052 6.96581 -0.0478256 6.69193 0.0341114 6.44263C0.116048 6.19333 0.3339 6.01125 0.596797 5.9736L5.60932 5.25336C5.83611 5.22071 6.0326 5.07973 6.13395 4.87615L8.37615 0.38413Z" fill="#2D2D2D" fill-opacity="0.5"/>
</svg>
