<svg width="18" height="18" viewBox="0 0 18 18" fill="none" xmlns="http://www.w3.org/2000/svg">
<path fill-rule="evenodd" clip-rule="evenodd" d="M8 16C3.58154 16 0 12.4182 0 8C0 3.58179 3.58154 0 8 0C12.4185 0 16 3.58179 16 8C16 9.84863 15.373 11.551 14.3198 12.9058L17.707 16.293C18.0977 16.6833 18.0977 17.3167 17.707 17.707C17.3164 18.0977 16.6836 18.0977 16.293 17.707L12.9058 14.3198C11.5513 15.3728 9.84863 16 8 16ZM8 14C11.3135 14 14 11.3137 14 8C14 4.68628 11.3135 2 8 2C4.68652 2 2 4.68628 2 8C2 11.3137 4.68652 14 8 14Z" fill="white"/>
</svg>
