<svg width="28" height="23" viewBox="0 0 28 23" fill="none" xmlns="http://www.w3.org/2000/svg">
<path fill-rule="evenodd" clip-rule="evenodd" d="M8.806 23C19.3713 23 25.1502 14.1515 25.1502 6.47912C25.1502 6.22913 25.1456 5.97915 25.1331 5.72917C26.2562 4.91004 27.23 3.8881 28 2.72308C26.9702 3.18374 25.8627 3.49662 24.7007 3.63812C25.886 2.91961 26.796 1.78132 27.2269 0.426072C26.1162 1.08955 24.8873 1.57379 23.5791 1.83478C22.5307 0.705927 21.0373 0 19.3853 0C16.2136 0 13.6391 2.60045 13.6391 5.80463C13.6391 6.26215 13.692 6.70552 13.7884 7.13002C9.016 6.88789 4.78178 4.57673 1.94911 1.06439C1.45444 1.92125 1.17133 2.91961 1.17133 3.98086C1.17133 5.99645 2.184 7.77305 3.72556 8.81544C2.78444 8.78556 1.89933 8.523 1.12622 8.08907C1.12467 8.11265 1.12467 8.13781 1.12467 8.16139C1.12467 10.9757 3.10333 13.323 5.73222 13.856C5.25 13.988 4.74289 14.0588 4.21867 14.0588C3.84689 14.0588 3.48756 14.0211 3.13756 13.9534C3.86867 16.2615 5.98889 17.939 8.50578 17.9878C6.538 19.5443 4.06156 20.4734 1.37044 20.4734C0.906889 20.4734 0.449556 20.4451 0 20.3917C2.54178 22.0394 5.56111 23 8.806 23Z" fill="#3891B3"/>
</svg>
