<svg width="36" height="29" viewBox="0 0 36 29" fill="none" xmlns="http://www.w3.org/2000/svg">
<path fill-rule="evenodd" clip-rule="evenodd" d="M11.322 28.9995C24.906 28.9995 32.336 17.843 32.336 8.16918C32.336 7.85399 32.33 7.5388 32.314 7.22361C33.758 6.19082 35.01 4.9023 36 3.4334C34.676 4.01422 33.252 4.4087 31.758 4.58711C33.282 3.68119 34.452 2.24598 35.006 0.537212C33.578 1.37375 31.998 1.98431 30.316 2.31338C28.968 0.890067 27.048 0 24.924 0C20.846 0 17.536 3.27877 17.536 7.31876C17.536 7.89562 17.604 8.45464 17.728 8.98987C11.592 8.68459 6.14799 5.77056 2.506 1.34204C1.87 2.42241 1.506 3.68119 1.506 5.01926C1.506 7.56061 2.808 9.80064 4.79 11.1149C3.58 11.0773 2.442 10.7462 1.448 10.1991C1.446 10.2288 1.446 10.2605 1.446 10.2903C1.446 13.8386 3.99 16.7983 7.36999 17.4703C6.74999 17.6368 6.09799 17.726 5.424 17.726C4.946 17.726 4.484 17.6784 4.034 17.5932C4.974 20.5032 7.69999 22.6184 10.936 22.6798C8.40599 24.6423 5.222 25.8139 1.762 25.8139C1.166 25.8139 0.578 25.7782 0 25.7108C3.268 27.7883 7.14999 28.9995 11.322 28.9995Z" fill="#258700"/>
</svg>
