<svg width="36" height="29" viewBox="0 0 36 29" fill="none" xmlns="http://www.w3.org/2000/svg">
<path fill-rule="evenodd" clip-rule="evenodd" d="M11.322 29C24.906 29 32.336 17.8433 32.336 8.16932C32.336 7.85413 32.33 7.53893 32.314 7.22373C33.758 6.19092 35.01 4.90239 36 3.43345C34.676 4.01429 33.252 4.40878 31.758 4.58719C33.282 3.68125 34.452 2.24602 35.006 0.537221C33.578 1.37378 31.998 1.98435 30.316 2.31342C28.968 0.890081 27.048 0 24.924 0C20.846 0 17.536 3.27883 17.536 7.31889C17.536 7.89575 17.604 8.45478 17.728 8.99002C11.592 8.68474 6.148 5.77066 2.506 1.34206C1.87 2.42245 1.506 3.68125 1.506 5.01935C1.506 7.56074 2.808 9.80081 4.79 11.1151C3.58 11.0774 2.442 10.7464 1.448 10.1993C1.446 10.229 1.446 10.2607 1.446 10.2905C1.446 13.8389 3.99 16.7985 7.37 17.4706C6.75 17.6371 6.098 17.7263 5.424 17.7263C4.946 17.7263 4.484 17.6787 4.034 17.5935C4.974 20.5036 7.7 22.6188 10.936 22.6802C8.406 24.6428 5.222 25.8143 1.762 25.8143C1.166 25.8143 0.578 25.7787 0 25.7113C3.268 27.7888 7.15 29 11.322 29Z" fill="white"/>
</svg>
